<?xml version="1.0" standalone="no"?>
<!DOCTYPE svg PUBLIC "-//W3C//DTD SVG 20010904//EN"
 "http://www.w3.org/TR/2001/REC-SVG-20010904/DTD/svg10.dtd">
<svg version="1.0" xmlns="http://www.w3.org/2000/svg"
 width="166.000000pt" height="166.000000pt" viewBox="0 0 166.000000 166.000000"
 preserveAspectRatio="xMidYMid meet">
<metadata>
Created by potrace 1.14, written by Peter Selinger 2001-2017
</metadata>
<g transform="translate(0.000000,166.000000) scale(0.100000,-0.100000)"
fill="#000000" stroke="none">
<path d="M190 1456 c0 -3 13 -26 29 -53 16 -26 74 -126 129 -221 l100 -173 26
47 c14 25 26 51 26 57 0 6 -27 57 -60 114 -33 56 -60 107 -60 113 0 6 76 10
219 10 l219 0 68 -120 c38 -67 74 -129 79 -138 6 -9 19 -32 29 -51 l18 -34 30
53 30 52 -66 114 c-36 62 -66 116 -66 119 0 3 124 5 275 5 151 0 275 3 275 6
0 4 -12 28 -27 55 l-26 49 -624 0 c-342 0 -623 -2 -623 -4z"/>
<path d="M136 1395 c-14 -26 -26 -51 -26 -56 0 -4 15 -34 34 -66 18 -32 74
-128 124 -213 49 -85 99 -171 110 -190 11 -19 71 -123 132 -230 62 -107 137
-237 166 -289 l52 -93 40 68 c156 269 212 367 212 375 0 5 -24 9 -54 9 l-54 0
-64 -112 c-35 -62 -71 -114 -79 -116 -8 -1 -19 8 -25 20 -6 13 -35 66 -65 118
-31 52 -67 116 -81 141 -14 25 -32 55 -39 67 -15 24 -16 21 102 223 95 160 93
151 24 147 l-58 -3 -64 -112 c-36 -62 -70 -113 -76 -113 -7 0 -45 58 -85 129
-41 71 -102 177 -136 236 l-63 107 -27 -47z"/>
<path d="M420 1324 c0 -3 12 -28 28 -55 l27 -49 132 0 132 0 60 -102 c33 -57
64 -109 71 -115 13 -15 110 -18 110 -4 0 10 -164 296 -182 319 -8 9 -59 12
-194 12 -101 0 -184 -3 -184 -6z"/>
<path d="M990 1319 c0 -6 12 -30 26 -55 l26 -44 134 0 c74 0 134 -4 134 -8 0
-5 -17 -37 -38 -73 -72 -119 -503 -870 -509 -885 -5 -12 4 -15 52 -12 l57 3
95 165 c53 91 137 237 188 325 50 88 144 251 209 362 64 112 119 210 122 218
5 13 -25 15 -245 15 -172 0 -251 -3 -251 -11z"/>
<path d="M1154 1192 c-9 -6 -24 -31 -103 -174 l-26 -48 -136 0 -135 0 -24 -47
c-14 -27 -26 -51 -28 -55 -2 -5 80 -8 182 -8 136 0 188 3 196 13 24 27 187
316 182 321 -8 9 -95 7 -108 -2z"/>
<path d="M699 1127 c-15 -23 -57 -95 -93 -160 l-67 -117 93 -160 c51 -88 95
-160 98 -160 3 0 17 21 31 48 l26 47 -64 112 -64 112 17 33 c9 18 38 70 65
114 l49 82 -26 46 c-14 25 -29 46 -32 46 -4 0 -19 -19 -33 -43z"/>
<path d="M701 833 c0 -5 13 -28 28 -53 l27 -45 122 -3 121 -3 26 41 c47 75 57
70 -144 70 -100 0 -181 -3 -180 -7z"/>
</g>
</svg>
